<svg width="24" height="24" viewBox="0 0 24 24" fill="none" xmlns="http://www.w3.org/2000/svg">
  <path d="M8.5 12C9.32843 12 10 11.3284 10 10.5C10 9.67157 9.32843 9 8.5 9C7.67157 9 7 9.67157 7 10.5C7 11.3284 7.67157 12 8.5 12Z" fill="#07C160"/>
  <path d="M15.5 12C16.3284 12 17 11.3284 17 10.5C17 9.67157 16.3284 9 15.5 9C14.6716 9 14 9.67157 14 10.5C14 11.3284 14.6716 12 15.5 12Z" fill="#07C160"/>
  <path d="M12 2C6.48 2 2 6.48 2 12C2 14.5 3 16.75 4.5 18.5L3 22L6.5 20.5C8.25 21.5 10.1 22 12 22C17.52 22 22 17.52 22 12C22 6.48 17.52 2 12 2ZM12 19C10.3 19 8.7 18.6 7.3 17.9L4 19L5.1 15.7C4.4 14.3 4 12.7 4 11C4 7.7 7.7 5 12 5C16.3 5 20 7.7 20 11C20 14.3 16.3 17 12 17V19Z" fill="#07C160"/>
</svg> 